# xmcd
#
# Track frame offsets:
#	225
#	12560
#	31013
#	47852
#	71071
#
# Disc length: 1205 seconds
#
# Revision: 1
# Processed by: cddbd v1.5.2PL0 Copyright (c) Steve Scherf et al.
# Submitted via: audiograbber 1.83.01
#
DISCID=3e04b205
DTITLE=Hobo - König der Narren
DYEAR=1900
DGENRE=
TTITLE0=Preludium
TTITLE1=König der Narren
TTITLE2=Meilenweit
TTITLE3=Der alte Cowboy
TTITLE4=Ein Stück Holz
EXTD=
EXTT0=
EXTT1=
EXTT2=
EXTT3=
EXTT4=
PLAYORDER=
